<svg width="60px" viewBox="0 0 169 170" version="1.1"
     xmlns="http://www.w3.org/2000/svg">
        <g stroke="#896ee3" stroke-width="2" fill="#0D47A1" fill-rule="evenodd">
        <path d="M86.1159722,52.0107391 C85.1909509,51.4796386 84.0534936,51.4796386 83.1284723,52.0107391 L57.0840278,66.9641415 C56.1523042,67.4990901 55.5777778,68.4914424 55.5777778,69.5658161 L55.5777778,99.4341839 C55.5777778,100.508558 56.1523042,101.50091 57.0840278,102.035859 L83.1284723,116.989261 C84.0534936,117.520361 85.1909509,117.520361 86.1159722,116.989261 L112.160417,102.035859 C113.09214,101.50091 113.666667,100.508558 113.666667,99.4341839 L113.666667,69.5658161 C113.666667,68.4914424 113.09214,67.4990901 112.160417,66.9641415 L86.1159722,52.0107391 Z M87.1118055,50.2762893 L113.15625,65.2296917 C114.709123,66.1212727 115.666667,67.7751932 115.666667,69.5658161 L115.666667,99.4341839 C115.666667,101.224807 114.709123,102.878727 113.15625,103.770308 L87.1118055,118.723711 C85.5701033,119.608878 83.6743412,119.608878 82.1326389,118.723711 L56.0881945,103.770308 C54.5353217,102.878727 53.5777778,101.224807 53.5777778,99.4341839 L53.5777778,69.5658161 C53.5777778,67.7751932 54.5353217,66.1212727 56.0881945,65.2296917 L82.1326389,50.2762893 C83.6743412,49.3911219 85.5701033,49.3911219 87.1118055,50.2762893 Z"
              id="Polygon" fill="#896ee3"/>
        <path d="M64.5938884,74.8663456 C64.1154189,74.5905098 63.9511519,73.9790245 64.2269877,73.500555 C64.5028235,73.0220856 65.1143088,72.8578185 65.5927783,73.1336544 L85.1072174,84.3836544 C85.5856869,84.6594902 85.7499539,85.2709755 85.4741181,85.749445 C85.1982822,86.2279144 84.5867969,86.3921815 84.1083275,86.1163456 L64.5938884,74.8663456 Z"
              id="Line-Copy-7" fill="#11A7F2" fill-rule="nonzero"/>
        <path d="M84.1227773,74.8663456 C83.6443078,74.5905098 83.4800408,73.9790245 83.7558766,73.500555 C84.0317124,73.0220856 84.6431977,72.8578185 85.1216672,73.1336544 L104.636106,84.3836544 C105.114576,84.6594902 105.278843,85.2709755 105.003007,85.749445 C104.727171,86.2279144 104.115686,86.3921815 103.637216,86.1163456 L84.1227773,74.8663456 Z"
              id="Line-Copy-8" fill="#11A7F2" fill-rule="nonzero"
              transform="translate(94.379442, 79.625000) scale(-1, 1) translate(-94.379442, -79.625000)"/>
        <path d="M83.8722222,85.25 C83.8722222,84.6977153 84.3199375,84.25 84.8722222,84.25 C85.424507,84.25 85.8722222,84.6977153 85.8722222,85.25 L85.8722222,107.75 C85.8722222,108.302285 85.424507,108.75 84.8722222,108.75 C84.3199375,108.75 83.8722222,108.302285 83.8722222,107.75 L83.8722222,85.25 Z"
              id="Line-2" fill="#11A7F2" fill-rule="nonzero"/>
    </g>
</svg>